<?xml version="1.0" encoding="UTF-8"?>
<svg xmlns="http://www.w3.org/2000/svg" width="699" height="699" viewBox="0 0 699 699">
  <circle fill="#e9f7fe" cx="349.5" cy="349.5" r="349.5"></circle>
  <g transform="translate(0,699) scale(0.1,-0.1)" fill="#006084">
    <path d="M4120 5942 c-36 -9 -87 -30 -115 -46 -34 -19 -387 -365 -1090 -1065 -572 -570 -1052 -1054 -1068 -1076 -92 -133 -90 -364 6 -506 52 -77 2053 -2096 2121 -2141 104 -67 223 -90 342 -65 212 45 358 207 380 422 8 81 -9 166 -51 251 -32 65 -91 128 -879 925 l-845 854 848 850 c551 551 858 867 876 898 107 187 83 411 -62 567 -116 126 -293 176 -463 132z"></path>
  </g>
</svg>
